<?xml version="1.0" encoding="UTF-8"?>
<svg width="128px" height="128px" viewBox="0 0 128 128" version="1.1" xmlns="http://www.w3.org/2000/svg" xmlns:xlink="http://www.w3.org/1999/xlink">
    <title>ChatUI-icon-bg-128grey</title>
    <defs>
        <linearGradient x1="100%" y1="0%" x2="0.570913462%" y2="99.4290865%" id="linearGradient-1">
            <stop stop-color="#10A37F" offset="0.0901442308%"></stop>
            <stop stop-color="#78E4C8" offset="100%"></stop>
        </linearGradient>
    </defs>
    <g id="UniAP" stroke="none" stroke-width="1" fill="none" fill-rule="evenodd">
        <g id="ChatUI-icon-bg-128grey">
            <path d="M35.8943928,-1.45017643e-15 L92.1056072,1.45017643e-15 C104.58687,-8.42594268e-16 109.112877,1.29955856 113.67584,3.73985785 C118.238803,6.18015715 121.819843,9.76119719 124.260142,14.3241602 C126.700441,18.8871231 128,23.4131304 128,35.8943928 L128,92.1056072 C128,104.58687 126.700441,109.112877 124.260142,113.67584 C121.819843,118.238803 118.238803,121.819843 113.67584,124.260142 C109.112877,126.700441 104.58687,128 92.1056072,128 L35.8943928,128 C23.4131304,128 18.8871231,126.700441 14.3241602,124.260142 C9.76119719,121.819843 6.18015715,118.238803 3.73985785,113.67584 C1.29955856,109.112877 5.61729512e-16,104.58687 -9.66784287e-16,92.1056072 L9.66784287e-16,35.8943928 C-5.61729512e-16,23.4131304 1.29955856,18.8871231 3.73985785,14.3241602 C6.18015715,9.76119719 9.76119719,6.18015715 14.3241602,3.73985785 C18.8871231,1.29955856 23.4131304,8.42594268e-16 35.8943928,-1.45017643e-15 Z" id="rect" fill-opacity="0.118853802" fill="#808080"></path>
            <path d="M80,24.5 C86.4893458,24.5 92.3643458,27.1303271 96.6170094,31.3829906 C100.869673,35.6356542 103.5,41.5106542 103.5,48 L103.5,48 L103.5,54.4999993 L80.2101513,54.4999669 C76.8062156,48.8094338 70.5850726,45 63.4747851,45 C58.0927636,45 53.2202456,47.1826336 49.6932409,50.7115116 C46.1663322,54.2402935 43.9848711,59.1152541 43.9848711,64.5 C43.9848711,69.8847459 46.1663322,74.7597065 49.6932409,78.2884884 C53.2202456,81.8173664 58.0927636,84 63.4747851,84 C70.584662,84 76.8054972,80.1910062 80.2095616,74.5010188 L80.2095616,74.5010188 L103.5,74.5000214 L103.5,80 C103.5,86.4893458 100.869673,92.3643458 96.6170094,96.6170094 C92.3643458,100.869673 86.4893458,103.5 80,103.5 L80,103.5 L48,103.5 C41.5106542,103.5 35.6356542,100.869673 31.3829906,96.6170094 C27.1303271,92.3643458 24.5,86.4893458 24.5,80 L24.5,80 L24.5,48 C24.5,41.5106542 27.1303271,35.6356542 31.3829906,31.3829906 C35.6356542,27.1303271 41.5106542,24.5 48,24.5 L48,24.5 Z" id="C" stroke="#FFFFFF" fill="url(#linearGradient-1)"></path>
        </g>
    </g>
</svg>